<svg width="105" height="45" viewBox="0 0 105 45" fill="none" xmlns="http://www.w3.org/2000/svg">
<rect width="105" height="45" fill="#222529"/>
<path d="M9.76136 34V10.7273H15.3864V29.4318H25.0682V34H9.76136ZM49.0398 22.3636C49.0398 24.9242 48.5473 27.0947 47.5625 28.875C46.5777 30.6553 45.2443 32.0076 43.5625 32.9318C41.8883 33.8561 40.0095 34.3182 37.9261 34.3182C35.8352 34.3182 33.9527 33.8523 32.2784 32.9205C30.6042 31.9886 29.2746 30.6364 28.2898 28.8636C27.3125 27.0833 26.8239 24.9167 26.8239 22.3636C26.8239 19.803 27.3125 17.6326 28.2898 15.8523C29.2746 14.072 30.6042 12.7197 32.2784 11.7955C33.9527 10.8712 35.8352 10.4091 37.9261 10.4091C40.0095 10.4091 41.8883 10.8712 43.5625 11.7955C45.2443 12.7197 46.5777 14.072 47.5625 15.8523C48.5473 17.6326 49.0398 19.803 49.0398 22.3636ZM43.2898 22.3636C43.2898 20.8485 43.0739 19.5682 42.642 18.5227C42.2178 17.4773 41.6042 16.6856 40.8011 16.1477C40.0057 15.6098 39.0473 15.3409 37.9261 15.3409C36.8125 15.3409 35.8542 15.6098 35.0511 16.1477C34.2481 16.6856 33.6307 17.4773 33.1989 18.5227C32.7746 19.5682 32.5625 20.8485 32.5625 22.3636C32.5625 23.8788 32.7746 25.1591 33.1989 26.2045C33.6307 27.25 34.2481 28.0417 35.0511 28.5795C35.8542 29.1174 36.8125 29.3864 37.9261 29.3864C39.0473 29.3864 40.0057 29.1174 40.8011 28.5795C41.6042 28.0417 42.2178 27.25 42.642 26.2045C43.0739 25.1591 43.2898 23.8788 43.2898 22.3636ZM52.3239 34V10.7273H61.9375C63.6799 10.7273 65.1837 11.0417 66.4489 11.6705C67.7216 12.2917 68.7027 13.1856 69.392 14.3523C70.0814 15.5114 70.4261 16.8864 70.4261 18.4773C70.4261 20.0909 70.0739 21.4621 69.3693 22.5909C68.6648 23.7121 67.6648 24.5682 66.3693 25.1591C65.0739 25.7424 63.5398 26.0341 61.767 26.0341H55.6875V21.6023H60.7216C61.5701 21.6023 62.2784 21.4924 62.8466 21.2727C63.4223 21.0455 63.858 20.7045 64.1534 20.25C64.4489 19.7879 64.5966 19.197 64.5966 18.4773C64.5966 17.7576 64.4489 17.1629 64.1534 16.6932C63.858 16.2159 63.4223 15.8598 62.8466 15.625C62.2708 15.3826 61.5625 15.2614 60.7216 15.2614H57.9489V34H52.3239ZM65.4261 23.3636L71.2216 34H65.0852L59.4034 23.3636H65.4261ZM95.4773 22.3636C95.4773 24.9242 94.9848 27.0947 94 28.875C93.0152 30.6553 91.6818 32.0076 90 32.9318C88.3258 33.8561 86.447 34.3182 84.3636 34.3182C82.2727 34.3182 80.3902 33.8523 78.7159 32.9205C77.0417 31.9886 75.7121 30.6364 74.7273 28.8636C73.75 27.0833 73.2614 24.9167 73.2614 22.3636C73.2614 19.803 73.75 17.6326 74.7273 15.8523C75.7121 14.072 77.0417 12.7197 78.7159 11.7955C80.3902 10.8712 82.2727 10.4091 84.3636 10.4091C86.447 10.4091 88.3258 10.8712 90 11.7955C91.6818 12.7197 93.0152 14.072 94 15.8523C94.9848 17.6326 95.4773 19.803 95.4773 22.3636ZM89.7273 22.3636C89.7273 20.8485 89.5114 19.5682 89.0795 18.5227C88.6553 17.4773 88.0417 16.6856 87.2386 16.1477C86.4432 15.6098 85.4848 15.3409 84.3636 15.3409C83.25 15.3409 82.2917 15.6098 81.4886 16.1477C80.6856 16.6856 80.0682 17.4773 79.6364 18.5227C79.2121 19.5682 79 20.8485 79 22.3636C79 23.8788 79.2121 25.1591 79.6364 26.2045C80.0682 27.25 80.6856 28.0417 81.4886 28.5795C82.2917 29.1174 83.25 29.3864 84.3636 29.3864C85.4848 29.3864 86.4432 29.1174 87.2386 28.5795C88.0417 28.0417 88.6553 27.25 89.0795 26.2045C89.5114 25.1591 89.7273 23.8788 89.7273 22.3636Z" fill="white"/>
</svg>
