<svg width="50" height="45" viewBox="0 0 50 45" fill="none" xmlns="http://www.w3.org/2000/svg">
<rect width="50" height="45" fill="#222529"/>
<path d="M6.76136 34V10.7273H12.3864V29.4318H22.0682V34H6.76136ZM24.9801 34V10.7273H34.5938C36.3362 10.7273 37.84 11.0417 39.1051 11.6705C40.3778 12.2917 41.3589 13.1856 42.0483 14.3523C42.7377 15.5114 43.0824 16.8864 43.0824 18.4773C43.0824 20.0909 42.7301 21.4621 42.0256 22.5909C41.321 23.7121 40.321 24.5682 39.0256 25.1591C37.7301 25.7424 36.196 26.0341 34.4233 26.0341H28.3438V21.6023H33.3778C34.2263 21.6023 34.9347 21.4924 35.5028 21.2727C36.0786 21.0455 36.5142 20.7045 36.8097 20.25C37.1051 19.7879 37.2528 19.197 37.2528 18.4773C37.2528 17.7576 37.1051 17.1629 36.8097 16.6932C36.5142 16.2159 36.0786 15.8598 35.5028 15.625C34.9271 15.3826 34.2188 15.2614 33.3778 15.2614H30.6051V34H24.9801ZM38.0824 23.3636L43.8778 34H37.7415L32.0597 23.3636H38.0824Z" fill="white"/>
</svg>
